<?xml version="1.0" encoding="UTF-8" standalone="no"?>
<!DOCTYPE svg PUBLIC "-//W3C//DTD SVG 1.1//EN"
 "http://www.w3.org/Graphics/SVG/1.1/DTD/svg11.dtd">
<!-- Generated by graphviz version 2.43.0 (0)
 -->
<!-- Title: G Pages: 1 -->
<svg width="2352pt" height="188pt"
 viewBox="0.00 0.00 2351.50 188.00" xmlns="http://www.w3.org/2000/svg" xmlns:xlink="http://www.w3.org/1999/xlink">
<g id="graph0" class="graph" transform="scale(1 1) rotate(0) translate(4 184)">
<title>G</title>
<polygon fill="#343541" stroke="transparent" points="-4,4 -4,-184 2347.5,-184 2347.5,4 -4,4"/>
<!-- Training AI Models Locally -->
<g id="node1" class="node">
<title>Training AI Models Locally</title>
<path fill="#fed8b1" stroke="grey" d="M1218.5,-180C1218.5,-180 1046.5,-180 1046.5,-180 1040.5,-180 1034.5,-174 1034.5,-168 1034.5,-168 1034.5,-156 1034.5,-156 1034.5,-150 1040.5,-144 1046.5,-144 1046.5,-144 1218.5,-144 1218.5,-144 1224.5,-144 1230.5,-150 1230.5,-156 1230.5,-156 1230.5,-168 1230.5,-168 1230.5,-174 1224.5,-180 1218.5,-180"/>
<text text-anchor="middle" x="1132.5" y="-158.3" font-family="Helvetica,sans-Serif" font-size="14.00" fill="#343541">Training AI Models Locally</text>
</g>
<!-- Data Preparation -->
<g id="node2" class="node">
<title>Data Preparation</title>
<defs>
<linearGradient id="l_0" gradientUnits="userSpaceOnUse" x1="272.5" y1="-108" x2="272.5" y2="-72" >
<stop offset="0" style="stop-color:white;stop-opacity:1.;"/>
<stop offset="1" style="stop-color:lightgrey;stop-opacity:1.;"/>
</linearGradient>
</defs>
<path fill="url(#l_0)" stroke="grey" d="M327,-108C327,-108 218,-108 218,-108 212,-108 206,-102 206,-96 206,-96 206,-84 206,-84 206,-78 212,-72 218,-72 218,-72 327,-72 327,-72 333,-72 339,-78 339,-84 339,-84 339,-96 339,-96 339,-102 333,-108 327,-108"/>
<text text-anchor="middle" x="272.5" y="-86.3" font-family="Helvetica,sans-Serif" font-size="14.00" fill="#343541">Data Preparation</text>
</g>
<!-- Training AI Models Locally&#45;&gt;Data Preparation -->
<g id="edge1" class="edge">
<title>Training AI Models Locally&#45;&gt;Data Preparation</title>
<path fill="none" stroke="#aaaaaa" d="M1034.27,-153C861.23,-138.92 505.61,-109.97 349.2,-97.24"/>
<polygon fill="#aec6cf" stroke="#aaaaaa" points="349.44,-93.75 339.19,-96.43 348.87,-100.73 349.44,-93.75"/>
</g>
<!-- Model Selection -->
<g id="node3" class="node">
<title>Model Selection</title>
<defs>
<linearGradient id="l_1" gradientUnits="userSpaceOnUse" x1="660.5" y1="-108" x2="660.5" y2="-72" >
<stop offset="0" style="stop-color:white;stop-opacity:1.;"/>
<stop offset="1" style="stop-color:lightgrey;stop-opacity:1.;"/>
</linearGradient>
</defs>
<path fill="url(#l_1)" stroke="grey" d="M711,-108C711,-108 610,-108 610,-108 604,-108 598,-102 598,-96 598,-96 598,-84 598,-84 598,-78 604,-72 610,-72 610,-72 711,-72 711,-72 717,-72 723,-78 723,-84 723,-84 723,-96 723,-96 723,-102 717,-108 711,-108"/>
<text text-anchor="middle" x="660.5" y="-86.3" font-family="Helvetica,sans-Serif" font-size="14.00" fill="#343541">Model Selection</text>
</g>
<!-- Training AI Models Locally&#45;&gt;Model Selection -->
<g id="edge2" class="edge">
<title>Training AI Models Locally&#45;&gt;Model Selection</title>
<path fill="none" stroke="#aaaaaa" d="M1034.41,-146.45C944.66,-133.14 813.92,-113.75 733.19,-101.78"/>
<polygon fill="#b4d7a8" stroke="#aaaaaa" points="733.52,-98.29 723.11,-100.29 732.49,-105.21 733.52,-98.29"/>
</g>
<!-- Model Training -->
<g id="node4" class="node">
<title>Model Training</title>
<defs>
<linearGradient id="l_2" gradientUnits="userSpaceOnUse" x1="986.5" y1="-108" x2="986.5" y2="-72" >
<stop offset="0" style="stop-color:white;stop-opacity:1.;"/>
<stop offset="1" style="stop-color:lightgrey;stop-opacity:1.;"/>
</linearGradient>
</defs>
<path fill="url(#l_2)" stroke="grey" d="M1033.5,-108C1033.5,-108 939.5,-108 939.5,-108 933.5,-108 927.5,-102 927.5,-96 927.5,-96 927.5,-84 927.5,-84 927.5,-78 933.5,-72 939.5,-72 939.5,-72 1033.5,-72 1033.5,-72 1039.5,-72 1045.5,-78 1045.5,-84 1045.5,-84 1045.5,-96 1045.5,-96 1045.5,-102 1039.5,-108 1033.5,-108"/>
<text text-anchor="middle" x="986.5" y="-86.3" font-family="Helvetica,sans-Serif" font-size="14.00" fill="#343541">Model Training</text>
</g>
<!-- Training AI Models Locally&#45;&gt;Model Training -->
<g id="edge3" class="edge">
<title>Training AI Models Locally&#45;&gt;Model Training</title>
<path fill="none" stroke="#aaaaaa" d="M1096.78,-143.88C1077,-134.39 1052.23,-122.51 1031.17,-112.42"/>
<polygon fill="#f4c2c2" stroke="#aaaaaa" points="1032.63,-109.24 1022.1,-108.07 1029.6,-115.55 1032.63,-109.24"/>
</g>
<!-- Model Evaluation -->
<g id="node5" class="node">
<title>Model Evaluation</title>
<defs>
<linearGradient id="l_3" gradientUnits="userSpaceOnUse" x1="1283.5" y1="-108" x2="1283.5" y2="-72" >
<stop offset="0" style="stop-color:white;stop-opacity:1.;"/>
<stop offset="1" style="stop-color:lightgrey;stop-opacity:1.;"/>
</linearGradient>
</defs>
<path fill="url(#l_3)" stroke="grey" d="M1339,-108C1339,-108 1228,-108 1228,-108 1222,-108 1216,-102 1216,-96 1216,-96 1216,-84 1216,-84 1216,-78 1222,-72 1228,-72 1228,-72 1339,-72 1339,-72 1345,-72 1351,-78 1351,-84 1351,-84 1351,-96 1351,-96 1351,-102 1345,-108 1339,-108"/>
<text text-anchor="middle" x="1283.5" y="-86.3" font-family="Helvetica,sans-Serif" font-size="14.00" fill="#343541">Model Evaluation</text>
</g>
<!-- Training AI Models Locally&#45;&gt;Model Evaluation -->
<g id="edge4" class="edge">
<title>Training AI Models Locally&#45;&gt;Model Evaluation</title>
<path fill="none" stroke="#aaaaaa" d="M1169.44,-143.88C1189.99,-134.35 1215.75,-122.41 1237.59,-112.28"/>
<polygon fill="#fdfd96" stroke="#aaaaaa" points="1239.08,-115.45 1246.68,-108.07 1236.14,-109.1 1239.08,-115.45"/>
</g>
<!-- Hyperparameter Tuning -->
<g id="node6" class="node">
<title>Hyperparameter Tuning</title>
<defs>
<linearGradient id="l_4" gradientUnits="userSpaceOnUse" x1="1703.5" y1="-108" x2="1703.5" y2="-72" >
<stop offset="0" style="stop-color:white;stop-opacity:1.;"/>
<stop offset="1" style="stop-color:lightgrey;stop-opacity:1.;"/>
</linearGradient>
</defs>
<path fill="url(#l_4)" stroke="grey" d="M1782.5,-108C1782.5,-108 1624.5,-108 1624.5,-108 1618.5,-108 1612.5,-102 1612.5,-96 1612.5,-96 1612.5,-84 1612.5,-84 1612.5,-78 1618.5,-72 1624.5,-72 1624.5,-72 1782.5,-72 1782.5,-72 1788.5,-72 1794.5,-78 1794.5,-84 1794.5,-84 1794.5,-96 1794.5,-96 1794.5,-102 1788.5,-108 1782.5,-108"/>
<text text-anchor="middle" x="1703.5" y="-86.3" font-family="Helvetica,sans-Serif" font-size="14.00" fill="#343541">Hyperparameter Tuning</text>
</g>
<!-- Training AI Models Locally&#45;&gt;Hyperparameter Tuning -->
<g id="edge5" class="edge">
<title>Training AI Models Locally&#45;&gt;Hyperparameter Tuning</title>
<path fill="none" stroke="#aaaaaa" d="M1230.66,-148.97C1334.45,-136.24 1497.38,-116.27 1602.3,-103.41"/>
<polygon fill="#cdb4db" stroke="#aaaaaa" points="1602.77,-106.87 1612.27,-102.18 1601.92,-99.93 1602.77,-106.87"/>
</g>
<!-- Model Deployment -->
<g id="node7" class="node">
<title>Model Deployment</title>
<defs>
<linearGradient id="l_5" gradientUnits="userSpaceOnUse" x1="2095.5" y1="-108" x2="2095.5" y2="-72" >
<stop offset="0" style="stop-color:white;stop-opacity:1.;"/>
<stop offset="1" style="stop-color:lightgrey;stop-opacity:1.;"/>
</linearGradient>
</defs>
<path fill="url(#l_5)" stroke="grey" d="M2156.5,-108C2156.5,-108 2034.5,-108 2034.5,-108 2028.5,-108 2022.5,-102 2022.5,-96 2022.5,-96 2022.5,-84 2022.5,-84 2022.5,-78 2028.5,-72 2034.5,-72 2034.5,-72 2156.5,-72 2156.5,-72 2162.5,-72 2168.5,-78 2168.5,-84 2168.5,-84 2168.5,-96 2168.5,-96 2168.5,-102 2162.5,-108 2156.5,-108"/>
<text text-anchor="middle" x="2095.5" y="-86.3" font-family="Helvetica,sans-Serif" font-size="14.00" fill="#343541">Model Deployment</text>
</g>
<!-- Training AI Models Locally&#45;&gt;Model Deployment -->
<g id="edge6" class="edge">
<title>Training AI Models Locally&#45;&gt;Model Deployment</title>
<path fill="none" stroke="#aaaaaa" d="M1230.58,-153.87C1420.44,-140.07 1835.04,-109.93 2012.36,-97.04"/>
<polygon fill="#aec6cf" stroke="#aaaaaa" points="2012.7,-100.53 2022.42,-96.31 2012.19,-93.55 2012.7,-100.53"/>
</g>
<!-- Data Collection -->
<g id="node8" class="node">
<title>Data Collection</title>
<defs>
<linearGradient id="l_6" gradientUnits="userSpaceOnUse" x1="60.5" y1="-36" x2="60.5" y2="0" >
<stop offset="0" style="stop-color:white;stop-opacity:1.;"/>
<stop offset="1" style="stop-color:lightgrey;stop-opacity:1.;"/>
</linearGradient>
</defs>
<path fill="url(#l_6)" stroke="grey" d="M109,-36C109,-36 12,-36 12,-36 6,-36 0,-30 0,-24 0,-24 0,-12 0,-12 0,-6 6,0 12,0 12,0 109,0 109,0 115,0 121,-6 121,-12 121,-12 121,-24 121,-24 121,-30 115,-36 109,-36"/>
<text text-anchor="middle" x="60.5" y="-14.3" font-family="Helvetica,sans-Serif" font-size="14.00" fill="#343541">Data Collection</text>
</g>
<!-- Data Preparation&#45;&gt;Data Collection -->
<g id="edge7" class="edge">
<title>Data Preparation&#45;&gt;Data Collection</title>
<path fill="none" stroke="#aaaaaa" d="M220.91,-71.97C191.03,-62.1 153.24,-49.62 121.84,-39.25"/>
<polygon fill="white" stroke="#aaaaaa" points="122.91,-35.92 112.32,-36.11 120.72,-42.57 122.91,-35.92"/>
</g>
<!-- Data Cleaning -->
<g id="node9" class="node">
<title>Data Cleaning</title>
<defs>
<linearGradient id="l_7" gradientUnits="userSpaceOnUse" x1="196.5" y1="-36" x2="196.5" y2="0" >
<stop offset="0" style="stop-color:white;stop-opacity:1.;"/>
<stop offset="1" style="stop-color:lightgrey;stop-opacity:1.;"/>
</linearGradient>
</defs>
<path fill="url(#l_7)" stroke="grey" d="M241.5,-36C241.5,-36 151.5,-36 151.5,-36 145.5,-36 139.5,-30 139.5,-24 139.5,-24 139.5,-12 139.5,-12 139.5,-6 145.5,0 151.5,0 151.5,0 241.5,0 241.5,0 247.5,0 253.5,-6 253.5,-12 253.5,-12 253.5,-24 253.5,-24 253.5,-30 247.5,-36 241.5,-36"/>
<text text-anchor="middle" x="196.5" y="-14.3" font-family="Helvetica,sans-Serif" font-size="14.00" fill="#343541">Data Cleaning</text>
</g>
<!-- Data Preparation&#45;&gt;Data Cleaning -->
<g id="edge8" class="edge">
<title>Data Preparation&#45;&gt;Data Cleaning</title>
<path fill="none" stroke="#aaaaaa" d="M253.71,-71.7C244.33,-63.05 232.82,-52.45 222.59,-43.03"/>
<polygon fill="white" stroke="#aaaaaa" points="224.8,-40.3 215.07,-36.1 220.05,-45.45 224.8,-40.3"/>
</g>
<!-- Data Augmentation -->
<g id="node10" class="node">
<title>Data Augmentation</title>
<defs>
<linearGradient id="l_8" gradientUnits="userSpaceOnUse" x1="347.5" y1="-36" x2="347.5" y2="0" >
<stop offset="0" style="stop-color:white;stop-opacity:1.;"/>
<stop offset="1" style="stop-color:lightgrey;stop-opacity:1.;"/>
</linearGradient>
</defs>
<path fill="url(#l_8)" stroke="grey" d="M411.5,-36C411.5,-36 283.5,-36 283.5,-36 277.5,-36 271.5,-30 271.5,-24 271.5,-24 271.5,-12 271.5,-12 271.5,-6 277.5,0 283.5,0 283.5,0 411.5,0 411.5,0 417.5,0 423.5,-6 423.5,-12 423.5,-12 423.5,-24 423.5,-24 423.5,-30 417.5,-36 411.5,-36"/>
<text text-anchor="middle" x="347.5" y="-14.3" font-family="Helvetica,sans-Serif" font-size="14.00" fill="#343541">Data Augmentation</text>
</g>
<!-- Data Preparation&#45;&gt;Data Augmentation -->
<g id="edge9" class="edge">
<title>Data Preparation&#45;&gt;Data Augmentation</title>
<path fill="none" stroke="#aaaaaa" d="M291.04,-71.7C300.3,-63.05 311.66,-52.45 321.76,-43.03"/>
<polygon fill="white" stroke="#aaaaaa" points="324.25,-45.49 329.17,-36.1 319.48,-40.37 324.25,-45.49"/>
</g>
<!-- Select Algorithm -->
<g id="node11" class="node">
<title>Select Algorithm</title>
<defs>
<linearGradient id="l_9" gradientUnits="userSpaceOnUse" x1="507.5" y1="-36" x2="507.5" y2="0" >
<stop offset="0" style="stop-color:white;stop-opacity:1.;"/>
<stop offset="1" style="stop-color:lightgrey;stop-opacity:1.;"/>
</linearGradient>
</defs>
<path fill="url(#l_9)" stroke="grey" d="M561,-36C561,-36 454,-36 454,-36 448,-36 442,-30 442,-24 442,-24 442,-12 442,-12 442,-6 448,0 454,0 454,0 561,0 561,0 567,0 573,-6 573,-12 573,-12 573,-24 573,-24 573,-30 567,-36 561,-36"/>
<text text-anchor="middle" x="507.5" y="-14.3" font-family="Helvetica,sans-Serif" font-size="14.00" fill="#343541">Select Algorithm</text>
</g>
<!-- Model Selection&#45;&gt;Select Algorithm -->
<g id="edge10" class="edge">
<title>Model Selection&#45;&gt;Select Algorithm</title>
<path fill="none" stroke="#aaaaaa" d="M623.07,-71.88C602.25,-62.35 576.15,-50.41 554.02,-40.28"/>
<polygon fill="white" stroke="#aaaaaa" points="555.36,-37.05 544.81,-36.07 552.44,-43.41 555.36,-37.05"/>
</g>
<!-- Framework Setup -->
<g id="node12" class="node">
<title>Framework Setup</title>
<defs>
<linearGradient id="l_10" gradientUnits="userSpaceOnUse" x1="660.5" y1="-36" x2="660.5" y2="0" >
<stop offset="0" style="stop-color:white;stop-opacity:1.;"/>
<stop offset="1" style="stop-color:lightgrey;stop-opacity:1.;"/>
</linearGradient>
</defs>
<path fill="url(#l_10)" stroke="grey" d="M717.5,-36C717.5,-36 603.5,-36 603.5,-36 597.5,-36 591.5,-30 591.5,-24 591.5,-24 591.5,-12 591.5,-12 591.5,-6 597.5,0 603.5,0 603.5,0 717.5,0 717.5,0 723.5,0 729.5,-6 729.5,-12 729.5,-12 729.5,-24 729.5,-24 729.5,-30 723.5,-36 717.5,-36"/>
<text text-anchor="middle" x="660.5" y="-14.3" font-family="Helvetica,sans-Serif" font-size="14.00" fill="#343541">Framework Setup</text>
</g>
<!-- Model Selection&#45;&gt;Framework Setup -->
<g id="edge11" class="edge">
<title>Model Selection&#45;&gt;Framework Setup</title>
<path fill="none" stroke="#aaaaaa" d="M660.5,-71.7C660.5,-63.98 660.5,-54.71 660.5,-46.11"/>
<polygon fill="white" stroke="#aaaaaa" points="664,-46.1 660.5,-36.1 657,-46.1 664,-46.1"/>
</g>
<!-- Define Model -->
<g id="node13" class="node">
<title>Define Model</title>
<defs>
<linearGradient id="l_11" gradientUnits="userSpaceOnUse" x1="801.5" y1="-36" x2="801.5" y2="0" >
<stop offset="0" style="stop-color:white;stop-opacity:1.;"/>
<stop offset="1" style="stop-color:lightgrey;stop-opacity:1.;"/>
</linearGradient>
</defs>
<path fill="url(#l_11)" stroke="grey" d="M843,-36C843,-36 760,-36 760,-36 754,-36 748,-30 748,-24 748,-24 748,-12 748,-12 748,-6 754,0 760,0 760,0 843,0 843,0 849,0 855,-6 855,-12 855,-12 855,-24 855,-24 855,-30 849,-36 843,-36"/>
<text text-anchor="middle" x="801.5" y="-14.3" font-family="Helvetica,sans-Serif" font-size="14.00" fill="#343541">Define Model</text>
</g>
<!-- Model Training&#45;&gt;Define Model -->
<g id="edge12" class="edge">
<title>Model Training&#45;&gt;Define Model</title>
<path fill="none" stroke="#aaaaaa" d="M941.24,-71.88C915.5,-62.14 883.09,-49.87 855.96,-39.61"/>
<polygon fill="white" stroke="#aaaaaa" points="857.2,-36.33 846.61,-36.07 854.72,-42.88 857.2,-36.33"/>
</g>
<!-- Train Model -->
<g id="node14" class="node">
<title>Train Model</title>
<defs>
<linearGradient id="l_12" gradientUnits="userSpaceOnUse" x1="921.5" y1="-36" x2="921.5" y2="0" >
<stop offset="0" style="stop-color:white;stop-opacity:1.;"/>
<stop offset="1" style="stop-color:lightgrey;stop-opacity:1.;"/>
</linearGradient>
</defs>
<path fill="url(#l_12)" stroke="grey" d="M957.5,-36C957.5,-36 885.5,-36 885.5,-36 879.5,-36 873.5,-30 873.5,-24 873.5,-24 873.5,-12 873.5,-12 873.5,-6 879.5,0 885.5,0 885.5,0 957.5,0 957.5,0 963.5,0 969.5,-6 969.5,-12 969.5,-12 969.5,-24 969.5,-24 969.5,-30 963.5,-36 957.5,-36"/>
<text text-anchor="middle" x="921.5" y="-14.3" font-family="Helvetica,sans-Serif" font-size="14.00" fill="#343541">Train Model</text>
</g>
<!-- Model Training&#45;&gt;Train Model -->
<g id="edge13" class="edge">
<title>Model Training&#45;&gt;Train Model</title>
<path fill="none" stroke="#aaaaaa" d="M970.43,-71.7C962.56,-63.22 952.94,-52.86 944.33,-43.58"/>
<polygon fill="white" stroke="#aaaaaa" points="946.75,-41.05 937.38,-36.1 941.62,-45.81 946.75,-41.05"/>
</g>
<!-- Monitor Training -->
<g id="node15" class="node">
<title>Monitor Training</title>
<defs>
<linearGradient id="l_13" gradientUnits="userSpaceOnUse" x1="1052.5" y1="-36" x2="1052.5" y2="0" >
<stop offset="0" style="stop-color:white;stop-opacity:1.;"/>
<stop offset="1" style="stop-color:lightgrey;stop-opacity:1.;"/>
</linearGradient>
</defs>
<path fill="url(#l_13)" stroke="grey" d="M1105,-36C1105,-36 1000,-36 1000,-36 994,-36 988,-30 988,-24 988,-24 988,-12 988,-12 988,-6 994,0 1000,0 1000,0 1105,0 1105,0 1111,0 1117,-6 1117,-12 1117,-12 1117,-24 1117,-24 1117,-30 1111,-36 1105,-36"/>
<text text-anchor="middle" x="1052.5" y="-14.3" font-family="Helvetica,sans-Serif" font-size="14.00" fill="#343541">Monitor Training</text>
</g>
<!-- Model Training&#45;&gt;Monitor Training -->
<g id="edge14" class="edge">
<title>Model Training&#45;&gt;Monitor Training</title>
<path fill="none" stroke="#aaaaaa" d="M1002.81,-71.7C1010.81,-63.22 1020.57,-52.86 1029.32,-43.58"/>
<polygon fill="white" stroke="#aaaaaa" points="1032.06,-45.78 1036.37,-36.1 1026.97,-40.98 1032.06,-45.78"/>
</g>
<!-- Performance Metrics -->
<g id="node16" class="node">
<title>Performance Metrics</title>
<defs>
<linearGradient id="l_14" gradientUnits="userSpaceOnUse" x1="1214.5" y1="-36" x2="1214.5" y2="0" >
<stop offset="0" style="stop-color:white;stop-opacity:1.;"/>
<stop offset="1" style="stop-color:lightgrey;stop-opacity:1.;"/>
</linearGradient>
</defs>
<path fill="url(#l_14)" stroke="grey" d="M1282,-36C1282,-36 1147,-36 1147,-36 1141,-36 1135,-30 1135,-24 1135,-24 1135,-12 1135,-12 1135,-6 1141,0 1147,0 1147,0 1282,0 1282,0 1288,0 1294,-6 1294,-12 1294,-12 1294,-24 1294,-24 1294,-30 1288,-36 1282,-36"/>
<text text-anchor="middle" x="1214.5" y="-14.3" font-family="Helvetica,sans-Serif" font-size="14.00" fill="#343541">Performance Metrics</text>
</g>
<!-- Model Evaluation&#45;&gt;Performance Metrics -->
<g id="edge15" class="edge">
<title>Model Evaluation&#45;&gt;Performance Metrics</title>
<path fill="none" stroke="#aaaaaa" d="M1266.44,-71.7C1258,-63.14 1247.68,-52.66 1238.46,-43.3"/>
<polygon fill="white" stroke="#aaaaaa" points="1240.87,-40.77 1231.36,-36.1 1235.89,-45.68 1240.87,-40.77"/>
</g>
<!-- Validation -->
<g id="node17" class="node">
<title>Validation</title>
<defs>
<linearGradient id="l_15" gradientUnits="userSpaceOnUse" x1="1353.5" y1="-36" x2="1353.5" y2="0" >
<stop offset="0" style="stop-color:white;stop-opacity:1.;"/>
<stop offset="1" style="stop-color:lightgrey;stop-opacity:1.;"/>
</linearGradient>
</defs>
<path fill="url(#l_15)" stroke="grey" d="M1383.5,-36C1383.5,-36 1323.5,-36 1323.5,-36 1317.5,-36 1311.5,-30 1311.5,-24 1311.5,-24 1311.5,-12 1311.5,-12 1311.5,-6 1317.5,0 1323.5,0 1323.5,0 1383.5,0 1383.5,0 1389.5,0 1395.5,-6 1395.5,-12 1395.5,-12 1395.5,-24 1395.5,-24 1395.5,-30 1389.5,-36 1383.5,-36"/>
<text text-anchor="middle" x="1353.5" y="-14.3" font-family="Helvetica,sans-Serif" font-size="14.00" fill="#343541">Validation</text>
</g>
<!-- Model Evaluation&#45;&gt;Validation -->
<g id="edge16" class="edge">
<title>Model Evaluation&#45;&gt;Validation</title>
<path fill="none" stroke="#aaaaaa" d="M1300.8,-71.7C1309.36,-63.14 1319.84,-52.66 1329.2,-43.3"/>
<polygon fill="white" stroke="#aaaaaa" points="1331.8,-45.65 1336.4,-36.1 1326.85,-40.7 1331.8,-45.65"/>
</g>
<!-- Test Data Evaluation -->
<g id="node18" class="node">
<title>Test Data Evaluation</title>
<defs>
<linearGradient id="l_16" gradientUnits="userSpaceOnUse" x1="1492.5" y1="-36" x2="1492.5" y2="0" >
<stop offset="0" style="stop-color:white;stop-opacity:1.;"/>
<stop offset="1" style="stop-color:lightgrey;stop-opacity:1.;"/>
</linearGradient>
</defs>
<path fill="url(#l_16)" stroke="grey" d="M1559.5,-36C1559.5,-36 1425.5,-36 1425.5,-36 1419.5,-36 1413.5,-30 1413.5,-24 1413.5,-24 1413.5,-12 1413.5,-12 1413.5,-6 1419.5,0 1425.5,0 1425.5,0 1559.5,0 1559.5,0 1565.5,0 1571.5,-6 1571.5,-12 1571.5,-12 1571.5,-24 1571.5,-24 1571.5,-30 1565.5,-36 1559.5,-36"/>
<text text-anchor="middle" x="1492.5" y="-14.3" font-family="Helvetica,sans-Serif" font-size="14.00" fill="#343541">Test Data Evaluation</text>
</g>
<!-- Model Evaluation&#45;&gt;Test Data Evaluation -->
<g id="edge17" class="edge">
<title>Model Evaluation&#45;&gt;Test Data Evaluation</title>
<path fill="none" stroke="#aaaaaa" d="M1334.36,-71.97C1363.69,-62.14 1400.75,-49.73 1431.62,-39.39"/>
<polygon fill="white" stroke="#aaaaaa" points="1433.04,-42.61 1441.41,-36.11 1430.82,-35.97 1433.04,-42.61"/>
</g>
<!-- Grid Search -->
<g id="node19" class="node">
<title>Grid Search</title>
<defs>
<linearGradient id="l_17" gradientUnits="userSpaceOnUse" x1="1638.5" y1="-36" x2="1638.5" y2="0" >
<stop offset="0" style="stop-color:white;stop-opacity:1.;"/>
<stop offset="1" style="stop-color:lightgrey;stop-opacity:1.;"/>
</linearGradient>
</defs>
<path fill="url(#l_17)" stroke="grey" d="M1675.5,-36C1675.5,-36 1601.5,-36 1601.5,-36 1595.5,-36 1589.5,-30 1589.5,-24 1589.5,-24 1589.5,-12 1589.5,-12 1589.5,-6 1595.5,0 1601.5,0 1601.5,0 1675.5,0 1675.5,0 1681.5,0 1687.5,-6 1687.5,-12 1687.5,-12 1687.5,-24 1687.5,-24 1687.5,-30 1681.5,-36 1675.5,-36"/>
<text text-anchor="middle" x="1638.5" y="-14.3" font-family="Helvetica,sans-Serif" font-size="14.00" fill="#343541">Grid Search</text>
</g>
<!-- Hyperparameter Tuning&#45;&gt;Grid Search -->
<g id="edge18" class="edge">
<title>Hyperparameter Tuning&#45;&gt;Grid Search</title>
<path fill="none" stroke="#aaaaaa" d="M1687.43,-71.7C1679.56,-63.22 1669.94,-52.86 1661.33,-43.58"/>
<polygon fill="white" stroke="#aaaaaa" points="1663.75,-41.05 1654.38,-36.1 1658.62,-45.81 1663.75,-41.05"/>
</g>
<!-- Random Search -->
<g id="node20" class="node">
<title>Random Search</title>
<defs>
<linearGradient id="l_18" gradientUnits="userSpaceOnUse" x1="1768.5" y1="-36" x2="1768.5" y2="0" >
<stop offset="0" style="stop-color:white;stop-opacity:1.;"/>
<stop offset="1" style="stop-color:lightgrey;stop-opacity:1.;"/>
</linearGradient>
</defs>
<path fill="url(#l_18)" stroke="grey" d="M1819.5,-36C1819.5,-36 1717.5,-36 1717.5,-36 1711.5,-36 1705.5,-30 1705.5,-24 1705.5,-24 1705.5,-12 1705.5,-12 1705.5,-6 1711.5,0 1717.5,0 1717.5,0 1819.5,0 1819.5,0 1825.5,0 1831.5,-6 1831.5,-12 1831.5,-12 1831.5,-24 1831.5,-24 1831.5,-30 1825.5,-36 1819.5,-36"/>
<text text-anchor="middle" x="1768.5" y="-14.3" font-family="Helvetica,sans-Serif" font-size="14.00" fill="#343541">Random Search</text>
</g>
<!-- Hyperparameter Tuning&#45;&gt;Random Search -->
<g id="edge19" class="edge">
<title>Hyperparameter Tuning&#45;&gt;Random Search</title>
<path fill="none" stroke="#aaaaaa" d="M1719.57,-71.7C1727.44,-63.22 1737.06,-52.86 1745.67,-43.58"/>
<polygon fill="white" stroke="#aaaaaa" points="1748.38,-45.81 1752.62,-36.1 1743.25,-41.05 1748.38,-45.81"/>
</g>
<!-- Bayesian Optimization -->
<g id="node21" class="node">
<title>Bayesian Optimization</title>
<defs>
<linearGradient id="l_19" gradientUnits="userSpaceOnUse" x1="1936.5" y1="-36" x2="1936.5" y2="0" >
<stop offset="0" style="stop-color:white;stop-opacity:1.;"/>
<stop offset="1" style="stop-color:lightgrey;stop-opacity:1.;"/>
</linearGradient>
</defs>
<path fill="url(#l_19)" stroke="grey" d="M2011,-36C2011,-36 1862,-36 1862,-36 1856,-36 1850,-30 1850,-24 1850,-24 1850,-12 1850,-12 1850,-6 1856,0 1862,0 1862,0 2011,0 2011,0 2017,0 2023,-6 2023,-12 2023,-12 2023,-24 2023,-24 2023,-30 2017,-36 2011,-36"/>
<text text-anchor="middle" x="1936.5" y="-14.3" font-family="Helvetica,sans-Serif" font-size="14.00" fill="#343541">Bayesian Optimization</text>
</g>
<!-- Hyperparameter Tuning&#45;&gt;Bayesian Optimization -->
<g id="edge20" class="edge">
<title>Hyperparameter Tuning&#45;&gt;Bayesian Optimization</title>
<path fill="none" stroke="#aaaaaa" d="M1760.2,-71.97C1793.18,-62.06 1834.93,-49.51 1869.53,-39.12"/>
<polygon fill="white" stroke="#aaaaaa" points="1870.98,-42.34 1879.55,-36.11 1868.96,-35.64 1870.98,-42.34"/>
</g>
<!-- Export Model -->
<g id="node22" class="node">
<title>Export Model</title>
<defs>
<linearGradient id="l_20" gradientUnits="userSpaceOnUse" x1="2095.5" y1="-36" x2="2095.5" y2="0" >
<stop offset="0" style="stop-color:white;stop-opacity:1.;"/>
<stop offset="1" style="stop-color:lightgrey;stop-opacity:1.;"/>
</linearGradient>
</defs>
<path fill="url(#l_20)" stroke="grey" d="M2137.5,-36C2137.5,-36 2053.5,-36 2053.5,-36 2047.5,-36 2041.5,-30 2041.5,-24 2041.5,-24 2041.5,-12 2041.5,-12 2041.5,-6 2047.5,0 2053.5,0 2053.5,0 2137.5,0 2137.5,0 2143.5,0 2149.5,-6 2149.5,-12 2149.5,-12 2149.5,-24 2149.5,-24 2149.5,-30 2143.5,-36 2137.5,-36"/>
<text text-anchor="middle" x="2095.5" y="-14.3" font-family="Helvetica,sans-Serif" font-size="14.00" fill="#343541">Export Model</text>
</g>
<!-- Model Deployment&#45;&gt;Export Model -->
<g id="edge21" class="edge">
<title>Model Deployment&#45;&gt;Export Model</title>
<path fill="none" stroke="#aaaaaa" d="M2095.5,-71.7C2095.5,-63.98 2095.5,-54.71 2095.5,-46.11"/>
<polygon fill="white" stroke="#aaaaaa" points="2099,-46.1 2095.5,-36.1 2092,-46.1 2099,-46.1"/>
</g>
<!-- Deploy to Environment -->
<g id="node23" class="node">
<title>Deploy to Environment</title>
<defs>
<linearGradient id="l_21" gradientUnits="userSpaceOnUse" x1="2255.5" y1="-36" x2="2255.5" y2="0" >
<stop offset="0" style="stop-color:white;stop-opacity:1.;"/>
<stop offset="1" style="stop-color:lightgrey;stop-opacity:1.;"/>
</linearGradient>
</defs>
<path fill="url(#l_21)" stroke="grey" d="M2331.5,-36C2331.5,-36 2179.5,-36 2179.5,-36 2173.5,-36 2167.5,-30 2167.5,-24 2167.5,-24 2167.5,-12 2167.5,-12 2167.5,-6 2173.5,0 2179.5,0 2179.5,0 2331.5,0 2331.5,0 2337.5,0 2343.5,-6 2343.5,-12 2343.5,-12 2343.5,-24 2343.5,-24 2343.5,-30 2337.5,-36 2331.5,-36"/>
<text text-anchor="middle" x="2255.5" y="-14.3" font-family="Helvetica,sans-Serif" font-size="14.00" fill="#343541">Deploy to Environment</text>
</g>
<!-- Model Deployment&#45;&gt;Deploy to Environment -->
<g id="edge22" class="edge">
<title>Model Deployment&#45;&gt;Deploy to Environment</title>
<path fill="none" stroke="#aaaaaa" d="M2134.64,-71.88C2156.51,-62.31 2183.96,-50.3 2207.16,-40.15"/>
<polygon fill="white" stroke="#aaaaaa" points="2208.73,-43.28 2216.49,-36.07 2205.92,-36.87 2208.73,-43.28"/>
</g>
</g>
</svg>
